<svg width="32" height="32" viewBox="0 0 32 32" fill="none" xmlns="http://www.w3.org/2000/svg">
<path d="M25.9042 20.5708C25.5319 20.1985 25.0578 19.9448 24.5415 19.8415L21.3589 19.2055C19.6144 18.8566 17.8034 19.0992 16.2122 19.8948L15.7882 20.1055C14.197 20.9011 12.386 21.1437 10.6415 20.7948L8.06685 20.2802C7.19274 20.1055 6.28917 20.3792 5.65885 21.0095M10.6669 5.3335H21.3335L20.0002 6.66683V13.5628C20.0003 14.27 20.2814 14.9482 20.7815 15.4482L27.4482 22.1148C29.1282 23.7948 27.9375 26.6668 25.5615 26.6668H6.43752C4.06152 26.6668 2.87219 23.7948 4.55219 22.1148L11.2189 15.4482C11.719 14.9482 12 14.27 12.0002 13.5628V6.66683L10.6669 5.3335L25.9042 20.5708" stroke="#0054A6" stroke-width="2.66667" stroke-linecap="round" stroke-linejoin="round"/>
</svg>
